<svg xmlns="http://www.w3.org/2000/svg" version="1.1" xmlns:xlink="http://www.w3.org/1999/xlink" xmlns:svgjs="http://svgjs.com/svgjs" width="1920" height="1024" preserveAspectRatio="none" viewBox="0 0 1920 1024">
    <g mask="url(&quot;#SvgjsMask1244&quot;)" fill="none">
        <rect width="1920" height="1024" x="0" y="0" fill="rgba(23, 23, 23, 1)"></rect>
        <path d="M0,645.34C123.256,643.876,236.918,595.682,346.308,538.866C465.278,477.074,591.808,416.669,661.157,301.94C734.12,181.231,792.296,23.502,735.993,-105.82C679.147,-236.39,501.827,-252.396,384.609,-333.266C302.273,-390.07,245.042,-479.6,149.816,-510.226C53.286,-541.271,-47.158,-513.489,-148.168,-504.613C-275.754,-493.402,-421.218,-531.812,-520.824,-451.297C-621.809,-369.667,-661.284,-224.022,-655.783,-94.287C-650.615,27.594,-544.423,114.533,-492.157,224.76C-440.893,332.875,-442.598,469.421,-351.635,547.155C-257.207,627.85,-124.202,646.815,0,645.34" fill="#121212"></path>
        <path d="M1920 1853.518C2068.838 1817.6190000000001 2150.933 1666.399 2277.137 1579.716 2398.082 1496.645 2561.987 1475.989 2645.398 1355.278 2734.375 1226.512 2756.656 1061.597 2742.891 905.686 2728.652 744.413 2679.7380000000003 579.534 2566.677 463.65099999999995 2456.108 350.322 2286.006 338.462 2137.067 284.73800000000006 1976.98 226.99199999999996 1828.368 116.33500000000004 1659.3690000000001 136.37099999999998 1479.7559999999999 157.66499999999996 1279.279 235.97199999999998 1195.652 396.34900000000005 1111.751 557.25 1243.5030000000002 745.8050000000001 1246.979 927.234 1249.72 1070.292 1183.665 1206.623 1213.856 1346.4850000000001 1248.921 1508.925 1296.8490000000002 1686.671 1431.837 1783.597 1568.123 1881.455 1756.897 1892.857 1920 1853.518" fill="#1c1c1c"></path>
    </g>
    <defs>
        <mask id="SvgjsMask1244">
            <rect width="1920" height="1024" fill="#ffffff"></rect>
        </mask>
    </defs>
</svg>