<svg xmlns="http://www.w3.org/2000/svg" version="1.1" xmlns:xlink="http://www.w3.org/1999/xlink" xmlns:svgjs="http://svgjs.com/svgjs" width="1920" height="1024" preserveAspectRatio="none" viewBox="0 0 1920 1024">
    <g mask="url(&quot;#SvgjsMask1327&quot;)" fill="none">
        <rect width="1920" height="1024" x="0" y="0" fill="rgba(23, 23, 23, 1)"></rect>
        <path d="M0,823.506C149.18,796.865,257.76,676.35,367.505,571.849C459.716,484.044,509.605,369.904,584.501,266.933C682.254,132.538,883.16,40.185,874.942,-125.798C866.895,-288.316,657.406,-354.409,547.783,-474.657C441.733,-590.986,394.293,-784.91,241.092,-821.084C87.223,-857.416,-37.979,-690.394,-190.563,-648.997C-347.929,-606.303,-541.029,-682.391,-664.149,-575.488C-787.666,-468.241,-805.233,-279.285,-804.754,-115.706C-804.314,34.566,-718.479,163.049,-661.577,302.132C-601.949,447.88,-586.481,622.657,-462.798,720.128C-336.082,819.99,-158.823,851.869,0,823.506" fill="#131313"></path>
        <path d="M1920 1635.8C2031.658 1620.721 2113.285 1533.135 2207.104 1470.742 2299.249 1409.462 2400.951 1363.03 2465.411 1273.081 2538.852 1170.6 2633.549 1047.329 2597.0119999999997 926.66 2559.651 803.27 2394.427 780.087 2292.31 701.392 2214.477 641.4110000000001 2157.858 559.452 2068.233 519.163 1969.059 474.582 1862.033 445.144 1754.255 459.524 1636.097 475.288 1515.901 516.202 1434.903 603.6610000000001 1352.8809999999999 692.226 1323.075 816.4 1312.386 936.638 1302.085 1052.511 1329.5059999999999 1165.815 1375.425 1272.699 1422.185 1381.541 1479.763 1489.941 1578.324 1555.658 1677.667 1621.896 1801.673 1651.78 1920 1635.8" fill="#1b1b1b"></path>
    </g>
    <defs>
        <mask id="SvgjsMask1327">
            <rect width="1920" height="1024" fill="#ffffff"></rect>
        </mask>
    </defs>
</svg>